<?xml version="1.0" encoding="UTF-8"?>
<svg width="201px" height="200px" viewBox="0 0 201 200" version="1.1" xmlns="http://www.w3.org/2000/svg" xmlns:xlink="http://www.w3.org/1999/xlink">
    <!-- Generator: Sketch 42 (36781) - http://www.bohemiancoding.com/sketch -->
    <title>BrandVisualStudioIDE2017RC_40x</title>
    <desc>Created with Sketch.</desc>
    <defs></defs>
    <g id="Page-1" stroke="none" stroke-width="1" fill="none" fill-rule="evenodd">
        <g id="BrandVisualStudioIDE2017RC_40x" transform="translate(0.496875, 0.000000)" fill-rule="nonzero">
            <polygon id="canvas" fill="#F6F6F6" opacity="0" points="200 0 200 200 0 200 0 0"></polygon>
            <path d="M149.99,0 L149.99,171.775 L63.4,158.91 L63.23,158.605 L62.835,158.825 L0,149.495 L52.395,167.135 L52.46,167.25 L52.565,167.19 L149.99,200 L199.985,179.2 L199.985,20.8 L149.99,0 Z M195.065,22.14 L159.575,42.63 L186.41,18.545 L186.405,18.54 L195.065,22.14 Z M182.215,16.795 L154.89,32.575 L173.425,13.135 L182.215,16.795 L182.215,16.795 Z M153.115,4.685 L169.435,11.475 L153.115,20.845 L153.115,4.685 Z M153.115,23.55 L168.895,14.49 L153.115,31.04 L153.115,23.55 L153.115,23.55 Z M153.115,36.305 L181.145,20.115 L153.115,45.275 L153.115,36.305 L153.115,36.305 Z M153.115,49.065 L189.475,28.075 L153.115,58.13 L153.115,49.065 L153.115,49.065 Z M153.115,62.345 L190.14,40.99 L153.115,71.735 L153.115,62.345 L153.115,62.345 Z M153.115,75.635 L192.08,53.32 L153.115,85.02 L153.115,75.635 L153.115,75.635 Z M153.115,88.915 L192.275,66.49 L153.115,98.735 L153.115,88.915 L153.115,88.915 Z M153.115,102.195 L188.095,82.16 L153.115,111.695 L153.115,102.195 L153.115,102.195 Z M153.115,115.475 L192.585,92.87 L153.115,124.49 L153.115,115.475 L153.115,115.475 Z M153.115,128.76 L190.455,107.375 L153.115,137.465 L153.115,128.76 Z M153.115,142.04 L193.43,118.95 L153.115,150.925 L153.115,142.04 L153.115,142.04 Z M153.115,155.32 L189.425,134.53 L153.115,164.39 L153.115,155.32 L153.115,155.32 Z M153.115,165.755 L153.195,165.855 L153.115,165.9 L153.115,165.755 Z M153.115,171.775 L153.115,168.6 L190.585,147.145 L153.115,173.66 L153.115,171.775 L153.115,171.775 Z M140.125,173.47 L139.655,173.745 L139.555,173.385 L140.125,173.47 Z M137.975,173.15 L112.295,180.17 L126.285,171.415 L137.975,173.15 L137.975,173.15 Z M122.715,170.88 L122.33,171.12 L122.25,170.81 L122.715,170.88 L122.715,170.88 Z M119.91,170.465 L98.48,176.165 L109.81,168.965 L119.91,170.465 Z M104.135,168.12 L85.05,172.255 L94.49,166.69 L104.135,168.12 Z M86.715,165.535 L71.405,167.77 L76.945,164.085 L86.715,165.535 Z M62.155,161.885 L67.49,162.68 L59.23,163.505 L62.155,161.885 Z M53.26,164.13 L34.31,157.75 L58.34,161.32 L53.26,164.13 Z M58.585,165.925 L71.96,164.59 L66.13,168.47 L58.585,165.925 L58.585,165.925 Z M71.19,170.17 L88.175,167.69 L79.325,172.91 L71.19,170.17 L71.19,170.17 Z M84.715,174.725 L102.405,170.895 L92.345,177.29 L84.715,174.725 L84.715,174.725 Z M97.205,178.93 L119.21,173.075 L105.43,181.7 L97.205,178.93 Z M109.98,183.23 L135.26,176.32 L118.54,186.115 L109.98,183.23 L109.98,183.23 Z M121.48,187.105 L143.82,174.02 L149.525,174.87 L151.08,175.1 L130.04,189.99 L121.48,187.105 L121.48,187.105 Z M135.215,191.73 L185.335,163.34 L145.19,195.09 L135.215,191.73 L135.215,191.73 Z M196.86,177.115 L149.875,196.665 L149.73,196.615 L196.86,170.09 L196.86,177.115 Z M196.86,167.4 L152.205,192.535 L196.86,157.22 L196.86,167.4 Z M196.86,154.125 L136.325,188.41 L196.86,145.57 L196.86,154.125 Z M196.86,140.85 L159.22,162.405 L196.86,131.45 L196.86,140.85 Z M196.86,127.57 L158.995,149.255 L196.86,119.225 L196.86,127.57 Z M196.86,117.34 L196.665,117.095 L196.86,116.985 L196.86,117.34 L196.86,117.34 Z M196.86,114.285 L157.98,136.55 L196.86,105.22 L196.86,114.285 Z M196.86,101.005 L159.41,122.45 L196.86,92.445 L196.86,101.005 L196.86,101.005 Z M196.86,87.725 L160.425,108.59 L196.86,77.83 L196.86,87.725 L196.86,87.725 Z M196.86,74.445 L162.19,94.3 L196.86,65.75 L196.86,74.445 L196.86,74.445 Z M196.86,61.16 L160.7,81.87 L196.86,52.45 L196.86,61.16 L196.86,61.16 Z M196.86,47.88 L160.315,68.81 L196.86,38.46 L196.86,47.88 Z M196.86,34.415 L159.215,56.125 L196.86,25.01 L196.86,34.415 L196.86,34.415 Z M51.555,96.22 L97.49,141.665 L124.99,129.965 L124.99,40.865 L97.49,29.165 L51.555,74.615 L23.895,53.765 L12.5,57.58 L12.5,113.255 L23.895,117.07 L51.555,96.22 L51.555,96.22 Z M97.49,61.595 L97.49,109.245 L65.885,85.42 L97.49,61.595 L97.49,61.595 Z M23.895,68.855 L40.635,85.415 L23.895,101.98 L23.895,68.855 L23.895,68.855 Z" id="iconBg" fill="#865FC5"></path>
        </g>
    </g>
</svg>