<?xml version="1.0" encoding="UTF-8"?>
<svg width="99px" height="99px" viewBox="0 0 99 99" version="1.1" xmlns="http://www.w3.org/2000/svg" xmlns:xlink="http://www.w3.org/1999/xlink">
    <!-- Generator: Sketch 42 (36781) - http://www.bohemiancoding.com/sketch -->
    <title>Group 13</title>
    <desc>Created with Sketch.</desc>
    <defs></defs>
    <g id="Page-1" stroke="none" stroke-width="1" fill="none" fill-rule="evenodd">
        <g id="Group-13" fill="#7359C5">
            <path d="M53.0622222,89.78 L53.0622222,85.7088889 C53.0622222,83.54 51.3044444,81.7733333 49.1466667,81.7733333 C46.9777778,81.7733333 45.2066667,83.54 45.2066667,85.7088889 L45.2066667,89.7733333 C26.0222222,87.8844444 10.3911111,72.2 8.56,53.0155556 L12.5311111,53.0155556 C14.6955556,53.0155556 16.4577778,51.2644444 16.4577778,49.0866667 C16.4577778,46.9244444 14.6955556,45.16 12.5311111,45.16 L8.56666667,45.16 C10.4311111,26.04 26.0644444,10.4355556 45.2066667,8.55111111 L45.2066667,12.54 C45.2066667,14.7066667 46.9777778,16.4777778 49.1466667,16.4777778 C51.32,16.4777778 53.0755556,14.7066667 53.0755556,12.54 L53.0755556,8.55111111 C72.26,10.3866667 87.9422222,25.9933333 89.8111111,45.16 L85.72,45.16 C83.56,45.16 81.8044444,46.9244444 81.8044444,49.0866667 C81.8044444,51.2644444 83.56,53.0266667 85.72,53.0266667 L89.8111111,53.0266667 C87.9844444,72.2622222 72.3,87.9511111 53.0622222,89.78 Z M49.2022222,0 C22.08,0 0,22.0644444 0,49.1355556 C0,76.2644444 22.08,98.3333333 49.2022222,98.3333333 C76.3222222,98.3333333 98.3733333,76.2644444 98.3733333,49.1355556 C98.3733333,22.0644444 76.3222222,0 49.2022222,0 L49.2022222,0 Z" id="Fill-37"></path>
            <path d="M64.0111111,20.6133333 C62.76,20.6133333 61.5688889,21.2022222 60.8311111,22.2 L42.1177778,47.5888889 C41.8466667,48.1244444 41.7444444,48.3466667 41.6666667,48.5622222 C41.6111111,48.7244444 41.5177778,48.9822222 41.48,49.2644444 C41.4422222,49.4955556 41.4355556,49.7377778 41.4422222,49.9911111 C41.4422222,50.28 41.4688889,50.5244444 41.5222222,50.7377778 C41.5777778,50.9977778 41.6866667,51.2311111 41.7888889,51.4666667 C41.8622222,51.6333333 41.9822222,51.8888889 42.1711111,52.1511111 L54.3711111,66.5488889 C55.1422222,67.4444444 56.2422222,67.9577778 57.3955556,67.9577778 C58.3177778,67.9577778 59.1911111,67.6377778 59.9111111,67.0288889 C60.7155556,66.3533333 61.2044444,65.4044444 61.2977778,64.3444444 C61.3711111,63.2888889 61.0444444,62.2755556 60.38,61.4888889 L50.3355556,49.6955556 L67.1622222,26.8444444 C68.4488889,25.1066667 68.0888889,22.6577778 66.3444444,21.3755556 C65.6466667,20.8777778 64.84,20.6133333 64.0111111,20.6133333" id="Fill-38"></path>
        </g>
    </g>
</svg>