<?xml version="1.0" encoding="UTF-8"?>
<svg width="270px" height="100px" viewBox="0 0 270 100" version="1.1" xmlns="http://www.w3.org/2000/svg" xmlns:xlink="http://www.w3.org/1999/xlink">
    <!-- Generator: Sketch 42 (36781) - http://www.bohemiancoding.com/sketch -->
    <title>Group 12</title>
    <desc>Created with Sketch.</desc>
    <defs></defs>
    <g id="Page-1" stroke="none" stroke-width="1" fill="none" fill-rule="evenodd">
        <g id="Group-12">
            <text id="+" font-family="SegoeUI-Bold, Segoe UI" font-size="48" font-weight="bold" fill="#7C5CC5">
                <tspan x="123.03125" y="62">+</tspan>
            </text>
            <g id="BrandVisualStudioIDE2017RC_40x" transform="translate(170.000000, 0.000000)" fill-rule="nonzero">
                <polygon id="canvas" fill="#F6F6F6" opacity="0" points="100 0 100 100 0 100 0 0"></polygon>
                <path d="M74.995,0 L74.995,85.8875 L31.7,79.455 L31.615,79.3025 L31.4175,79.4125 L0,74.7475 L26.1975,83.5675 L26.23,83.625 L26.2825,83.595 L74.995,100 L99.9925,89.6 L99.9925,10.4 L74.995,0 Z M97.5325,11.07 L79.7875,21.315 L93.205,9.2725 L93.2025,9.27 L97.5325,11.07 Z M91.1075,8.3975 L77.445,16.2875 L86.7125,6.5675 L91.1075,8.3975 L91.1075,8.3975 Z M76.5575,2.3425 L84.7175,5.7375 L76.5575,10.4225 L76.5575,2.3425 Z M76.5575,11.775 L84.4475,7.245 L76.5575,15.52 L76.5575,11.775 L76.5575,11.775 Z M76.5575,18.1525 L90.5725,10.0575 L76.5575,22.6375 L76.5575,18.1525 L76.5575,18.1525 Z M76.5575,24.5325 L94.7375,14.0375 L76.5575,29.065 L76.5575,24.5325 L76.5575,24.5325 Z M76.5575,31.1725 L95.07,20.495 L76.5575,35.8675 L76.5575,31.1725 L76.5575,31.1725 Z M76.5575,37.8175 L96.04,26.66 L76.5575,42.51 L76.5575,37.8175 L76.5575,37.8175 Z M76.5575,44.4575 L96.1375,33.245 L76.5575,49.3675 L76.5575,44.4575 L76.5575,44.4575 Z M76.5575,51.0975 L94.0475,41.08 L76.5575,55.8475 L76.5575,51.0975 L76.5575,51.0975 Z M76.5575,57.7375 L96.2925,46.435 L76.5575,62.245 L76.5575,57.7375 L76.5575,57.7375 Z M76.5575,64.38 L95.2275,53.6875 L76.5575,68.7325 L76.5575,64.38 Z M76.5575,71.02 L96.715,59.475 L76.5575,75.4625 L76.5575,71.02 L76.5575,71.02 Z M76.5575,77.66 L94.7125,67.265 L76.5575,82.195 L76.5575,77.66 L76.5575,77.66 Z M76.5575,82.8775 L76.5975,82.9275 L76.5575,82.95 L76.5575,82.8775 Z M76.5575,85.8875 L76.5575,84.3 L95.2925,73.5725 L76.5575,86.83 L76.5575,85.8875 L76.5575,85.8875 Z M70.0625,86.735 L69.8275,86.8725 L69.7775,86.6925 L70.0625,86.735 Z M68.9875,86.575 L56.1475,90.085 L63.1425,85.7075 L68.9875,86.575 L68.9875,86.575 Z M61.3575,85.44 L61.165,85.56 L61.125,85.405 L61.3575,85.44 L61.3575,85.44 Z M59.955,85.2325 L49.24,88.0825 L54.905,84.4825 L59.955,85.2325 Z M52.0675,84.06 L42.525,86.1275 L47.245,83.345 L52.0675,84.06 Z M43.3575,82.7675 L35.7025,83.885 L38.4725,82.0425 L43.3575,82.7675 Z M31.0775,80.9425 L33.745,81.34 L29.615,81.7525 L31.0775,80.9425 Z M26.63,82.065 L17.155,78.875 L29.17,80.66 L26.63,82.065 Z M29.2925,82.9625 L35.98,82.295 L33.065,84.235 L29.2925,82.9625 L29.2925,82.9625 Z M35.595,85.085 L44.0875,83.845 L39.6625,86.455 L35.595,85.085 L35.595,85.085 Z M42.3575,87.3625 L51.2025,85.4475 L46.1725,88.645 L42.3575,87.3625 L42.3575,87.3625 Z M48.6025,89.465 L59.605,86.5375 L52.715,90.85 L48.6025,89.465 Z M54.99,91.615 L67.63,88.16 L59.27,93.0575 L54.99,91.615 L54.99,91.615 Z M60.74,93.5525 L71.91,87.01 L74.7625,87.435 L75.54,87.55 L65.02,94.995 L60.74,93.5525 L60.74,93.5525 Z M67.6075,95.865 L92.6675,81.67 L72.595,97.545 L67.6075,95.865 L67.6075,95.865 Z M98.43,88.5575 L74.9375,98.3325 L74.865,98.3075 L98.43,85.045 L98.43,88.5575 Z M98.43,83.7 L76.1025,96.2675 L98.43,78.61 L98.43,83.7 Z M98.43,77.0625 L68.1625,94.205 L98.43,72.785 L98.43,77.0625 Z M98.43,70.425 L79.61,81.2025 L98.43,65.725 L98.43,70.425 Z M98.43,63.785 L79.4975,74.6275 L98.43,59.6125 L98.43,63.785 Z M98.43,58.67 L98.3325,58.5475 L98.43,58.4925 L98.43,58.67 L98.43,58.67 Z M98.43,57.1425 L78.99,68.275 L98.43,52.61 L98.43,57.1425 Z M98.43,50.5025 L79.705,61.225 L98.43,46.2225 L98.43,50.5025 L98.43,50.5025 Z M98.43,43.8625 L80.2125,54.295 L98.43,38.915 L98.43,43.8625 L98.43,43.8625 Z M98.43,37.2225 L81.095,47.15 L98.43,32.875 L98.43,37.2225 L98.43,37.2225 Z M98.43,30.58 L80.35,40.935 L98.43,26.225 L98.43,30.58 L98.43,30.58 Z M98.43,23.94 L80.1575,34.405 L98.43,19.23 L98.43,23.94 Z M98.43,17.2075 L79.6075,28.0625 L98.43,12.505 L98.43,17.2075 L98.43,17.2075 Z M25.7775,48.11 L48.745,70.8325 L62.495,64.9825 L62.495,20.4325 L48.745,14.5825 L25.7775,37.3075 L11.9475,26.8825 L6.25,28.79 L6.25,56.6275 L11.9475,58.535 L25.7775,48.11 L25.7775,48.11 Z M48.745,30.7975 L48.745,54.6225 L32.9425,42.71 L48.745,30.7975 L48.745,30.7975 Z M11.9475,34.4275 L20.3175,42.7075 L11.9475,50.99 L11.9475,34.4275 L11.9475,34.4275 Z" id="iconBg" fill="#865FC5"></path>
            </g>
            <g id="BrandVisualStudioIDE2017RTW_40x" fill-rule="nonzero">
                <polygon id="canvas" fill="#F6F6F6" opacity="0" points="100 100 0 100 0 0 100 0"></polygon>
                <path d="M75.0025,0 L75.0025,85.8875 L0.0075,74.7475 L75.0025,100 L100,89.6 L100,10.4 L75.0025,0 Z M25.7775,48.11 L48.745,70.8325 L62.495,64.9825 L62.495,20.4325 L48.745,14.5825 L25.7775,37.3075 L11.9475,26.8825 L6.25,28.79 L6.25,56.6275 L11.9475,58.535 L25.7775,48.11 L25.7775,48.11 Z M48.745,30.7975 L48.745,54.6225 L32.9425,42.71 L48.745,30.7975 L48.745,30.7975 Z M11.9475,34.4275 L20.3175,42.7075 L11.9475,50.99 L11.9475,34.4275 L11.9475,34.4275 Z" id="iconBg" fill="#865FC5"></path>
            </g>
        </g>
    </g>
</svg>